<svg xmlns="http://www.w3.org/2000/svg" viewBox="0 0 320 160" width="320" height="160" role="img" aria-label="Lab session">
  <defs>
    <linearGradient id="bg" x1="0" y1="0" x2="1" y2="1">
      <stop offset="0" stop-color="#00205B"/>
      <stop offset="1" stop-color="#152237"/>
    </linearGradient>
    <pattern id="grid" width="20" height="20" patternUnits="userSpaceOnUse">
      <path d="M20 0H0v20" fill="none" stroke="#fff" stroke-opacity=".07" stroke-width="1"/>
    </pattern>
  </defs>
  <rect width="320" height="160" fill="url(#bg)"/>
  <rect width="320" height="160" fill="url(#grid)"/>
  <g fill="none" stroke="#EAB10B" stroke-width="2.6" stroke-linecap="round" stroke-linejoin="round">

    <path d="M112 34a20 20 0 0 0 26 26l52 52a10 10 0 0 1-14 14l-52-52a20 20 0 0 1-26-26 20 20 0 0 1 14-14z"/>
    <path d="M208 30l-30 30"/>
    <g stroke="#F4F6FA">
      <path d="M196 42l14-14a20 20 0 0 1-26 26l-52 52a10 10 0 0 0 14 14"/>
      <circle cx="120" cy="120" r="6"/></g>
  </g>
</svg>
